<?xml version="1.0" encoding="UTF-8" standalone="no"?>
<svg width="36px" height="41px" viewBox="0 0 36 41" version="1.1" xmlns="http://www.w3.org/2000/svg" xmlns:xlink="http://www.w3.org/1999/xlink" xmlns:sketch="http://www.bohemiancoding.com/sketch/ns">
    <!-- Generator: Sketch 3.3.3 (12072) - http://www.bohemiancoding.com/sketch -->
    <title>Logo</title>
    <desc>Created with Sketch.</desc>
    <defs></defs>
    <g id="Page-1" stroke="none" stroke-width="1" fill="none" fill-rule="evenodd" sketch:type="MSPage">
        <g id="Logo" sketch:type="MSLayerGroup" transform="translate(-1.000000, 0.000000)" fill="#FFFFFF">
            <g id="Paw" transform="translate(9.503755, 16.814159)" sketch:type="MSShapeGroup">
                <path d="M9.42608401,17.5438199 C13.1227643,17.4383169 11.7585469,18.5762692 13.991292,18.7056163 C15.0635852,18.7701606 15.5944236,16.4895972 15.5944236,16.4895972 C15.753675,15.220227 12.7703645,12.401795 8.35379175,12.5739131 C6.2410537,12.6384575 3.42761308,13.9508571 3.42761308,15.0803814 C3.23016378,17.6585476 4.50276804,18.7061302 5.06259465,18.759403 C5.62242126,18.8126759 7.13286183,17.5653344 9.42608401,17.5438199 Z" id="path2890"></path>
                <path d="M1.95544526,13.2304246 C-1.46116206,10.3144063 0.38463244,6.583597 1.62002049,6.72983256 C2.59930761,6.7433054 3.81654864,9.9047023 3.54872245,12.3263687 C3.5518893,12.8525033 2.24522514,13.4412426 1.95544526,13.2304246 L1.95544526,13.2304246 Z" id="path3664-7"></path>
                <path d="M5.02564154,7.40026238 C5.6963048,7.77708628 7.1890681,7.58867462 7.40540894,7.2955893 C8.53039159,5.76735863 7.94626709,0.994254955 7.66502218,0.889581585 C7.66502218,0.889581585 7.16743341,-0.115282239 6.36696504,0.261541658 C3.23534448,2.12841044 3.54572337,6.31833705 5.02564154,7.40026238 L5.02564154,7.40026238 Z" id="path3666-0"></path>
                <path d="M9.53983958,6.24135263 C10.0524922,6.97022382 13.2357461,7.15604242 13.6553296,6.49697119 C14.5935759,4.0898967 13.4291112,0.0298019428 11.5442753,3.59889998e-07 C9.45933719,-0.00160407233 8.98188753,5.36184404 9.53983958,6.24135263 L9.53983958,6.24135263 Z" id="path3668-7"></path>
                <path d="M13.6331213,10.0300448 C13.6715866,11.1481174 14.7790201,12.1699997 16.450913,11.7698421 C17.4680069,11.8227239 19.2327523,7.74619889 16.3858873,5.90608038 C15.574926,5.45810462 13.5122371,7.36453355 13.6331213,10.0300448 L13.6331213,10.0300448 Z" id="path3670"></path>
            </g>
            <g id="House" sketch:type="MSShapeGroup">
                <path d="M5.77598345,38.1779969 C4.25047881,38.6504465 5.77598345,38.9247441 5.77598345,38.9247441 C5.77598345,38.9247441 32.47192,39.5815326 32.7863887,39.3864435 C33.1008575,39.1913544 33.0138261,39.0072334 33.6118384,38.6747269 C34.2098508,38.3422203 35.4871007,37.5171198 32.9500891,37.007997 C30.4130775,36.4988743 7.3014881,37.7055473 5.77598345,38.1779969 Z" id="House-Line"></path>
                <path d="M17.4532115,25.5096432 C15.9277069,25.9820927 17.4532115,26.2563903 17.4532115,26.2563903 C17.4532115,26.2563903 42.893935,26.9131789 43.2084038,26.7180897 C43.5228726,26.5230006 43.4358412,26.3388797 44.0338535,26.0063731 C44.6318658,25.6738666 45.9091158,24.848766 43.3721042,24.3396433 C40.8350926,23.8305206 18.9787162,25.0371936 17.4532115,25.5096432 Z" id="House-Line-2" transform="translate(30.774397, 25.473239) rotate(-90.000000) translate(-30.774397, -25.473239) "></path>
                <path d="M-6.63597272,26.2020597 C-8.16147737,26.6745093 -6.63597272,26.9488068 -6.63597272,26.9488068 C-6.63597272,26.9488068 18.8047508,27.6055954 19.1192196,27.4105063 C19.4336883,27.2154171 19.346657,27.0312962 19.9446693,26.6987896 C20.5426816,26.3662831 21.8199315,25.5411825 19.28292,25.0320598 C16.7459084,24.5229371 -5.11046808,25.7296101 -6.63597272,26.2020597 Z" id="House-Line-3" transform="translate(6.685213, 26.165656) rotate(-90.000000) translate(-6.685213, -26.165656) "></path>
                <path d="M5.45655598,14.0408429 C3.29362119,14.516369 5.45655598,14.9645812 5.45655598,14.9645812 C5.45655598,14.9645812 31.7938602,15.6213698 32.108329,15.4262806 C32.4227977,15.2311915 32.3357664,15.0470706 32.9337787,14.714564 C33.531791,14.3820574 34.8090409,13.5569569 32.2720294,13.0478342 C29.7350178,12.5387114 7.61949077,13.5653167 5.45655598,14.0408429 Z" id="House-Line-4" transform="translate(19.136374, 14.181430) rotate(-180.000000) translate(-19.136374, -14.181430) "></path>
                <path d="M-2.62309142,11.588961 C-4.14859606,12.0614106 -2.62309142,12.3357081 -2.62309142,12.3357081 C-2.62309142,12.3357081 23.3248148,12.9924967 23.6392835,12.7974076 C23.9537523,12.6023184 23.8667209,12.4181975 24.4647332,12.0856909 C25.0627456,11.7531844 26.3399955,10.9280838 23.8029839,10.4189611 C21.2659723,9.9098384 -1.09758677,11.1165114 -2.62309142,11.588961 Z" id="House-Line-5" transform="translate(11.025961, 11.552557) rotate(-225.000000) translate(-11.025961, -11.552557) "></path>
                <path d="M12.3335244,10.9890109 C10.8080198,11.4614605 12.3335244,11.735758 12.3335244,11.735758 C12.3335244,11.735758 38.019871,12.3798014 38.5958993,12.1974575 C39.1719277,12.0151135 38.9501324,11.943399 39.5481447,11.6108925 C40.146157,11.2783859 41.2966113,10.3281337 38.7595997,9.819011 C36.2225881,9.30988829 13.859029,10.5165613 12.3335244,10.9890109 Z" id="House-Line-6" transform="translate(25.923684, 10.952607) rotate(-135.000000) translate(-25.923684, -10.952607) "></path>
            </g>
        </g>
    </g>
</svg>